<mxfile host="app.diagrams.net" agent="Mozilla/5.0 (X11; Linux x86_64; rv:144.0) Gecko/20100101 Firefox/144.0" version="28.2.8">
  <diagram name="Page-1" id="wPJC55zQyD2QwQbl4Uuu">
    <mxGraphModel dx="1427" dy="835" grid="1" gridSize="10" guides="1" tooltips="1" connect="1" arrows="1" fold="1" page="1" pageScale="1" pageWidth="850" pageHeight="1100" math="0" shadow="0">
      <root>
        <mxCell id="0" />
        <mxCell id="1" parent="0" />
        <mxCell id="fuaNH1cyIJZBM1hytxez-24" style="edgeStyle=none;curved=1;rounded=0;orthogonalLoop=1;jettySize=auto;html=1;exitX=0.5;exitY=0.5;exitDx=0;exitDy=0;exitPerimeter=0;entryX=0;entryY=0.5;entryDx=0;entryDy=0;fontSize=12;startSize=8;endSize=8;" edge="1" parent="1" source="fuaNH1cyIJZBM1hytxez-1" target="fuaNH1cyIJZBM1hytxez-23">
          <mxGeometry relative="1" as="geometry" />
        </mxCell>
        <mxCell id="fuaNH1cyIJZBM1hytxez-25" style="edgeStyle=none;curved=1;rounded=0;orthogonalLoop=1;jettySize=auto;html=1;exitX=0.5;exitY=0.5;exitDx=0;exitDy=0;exitPerimeter=0;entryX=0;entryY=0.5;entryDx=0;entryDy=0;fontSize=12;startSize=8;endSize=8;" edge="1" parent="1" source="fuaNH1cyIJZBM1hytxez-1" target="fuaNH1cyIJZBM1hytxez-4">
          <mxGeometry relative="1" as="geometry" />
        </mxCell>
        <mxCell id="fuaNH1cyIJZBM1hytxez-37" style="edgeStyle=none;curved=1;rounded=0;orthogonalLoop=1;jettySize=auto;html=1;exitX=0.5;exitY=0.5;exitDx=0;exitDy=0;exitPerimeter=0;entryX=1;entryY=0.5;entryDx=0;entryDy=0;fontSize=12;startSize=8;endSize=8;" edge="1" parent="1" source="fuaNH1cyIJZBM1hytxez-1" target="fuaNH1cyIJZBM1hytxez-36">
          <mxGeometry relative="1" as="geometry" />
        </mxCell>
        <mxCell id="fuaNH1cyIJZBM1hytxez-39" style="edgeStyle=none;curved=1;rounded=0;orthogonalLoop=1;jettySize=auto;html=1;exitX=0.5;exitY=0.5;exitDx=0;exitDy=0;exitPerimeter=0;entryX=1;entryY=0.5;entryDx=0;entryDy=0;fontSize=12;startSize=8;endSize=8;" edge="1" parent="1" source="fuaNH1cyIJZBM1hytxez-1" target="fuaNH1cyIJZBM1hytxez-38">
          <mxGeometry relative="1" as="geometry" />
        </mxCell>
        <mxCell id="fuaNH1cyIJZBM1hytxez-44" style="edgeStyle=none;curved=1;rounded=0;orthogonalLoop=1;jettySize=auto;html=1;exitX=0.5;exitY=0.5;exitDx=0;exitDy=0;exitPerimeter=0;entryX=1;entryY=0.5;entryDx=0;entryDy=0;fontSize=12;startSize=8;endSize=8;" edge="1" parent="1" source="fuaNH1cyIJZBM1hytxez-1" target="fuaNH1cyIJZBM1hytxez-43">
          <mxGeometry relative="1" as="geometry" />
        </mxCell>
        <mxCell id="fuaNH1cyIJZBM1hytxez-52" style="edgeStyle=none;curved=1;rounded=0;orthogonalLoop=1;jettySize=auto;html=1;exitX=0.5;exitY=0.5;exitDx=0;exitDy=0;exitPerimeter=0;entryX=0;entryY=0.5;entryDx=0;entryDy=0;fontSize=12;startSize=8;endSize=8;" edge="1" parent="1" source="fuaNH1cyIJZBM1hytxez-1" target="fuaNH1cyIJZBM1hytxez-51">
          <mxGeometry relative="1" as="geometry" />
        </mxCell>
        <mxCell id="fuaNH1cyIJZBM1hytxez-1" value="Użytkownik" style="shape=umlActor;verticalLabelPosition=bottom;verticalAlign=top;html=1;outlineConnect=0;" vertex="1" parent="1">
          <mxGeometry x="80" y="300" width="30" height="60" as="geometry" />
        </mxCell>
        <mxCell id="fuaNH1cyIJZBM1hytxez-27" style="edgeStyle=none;curved=1;rounded=0;orthogonalLoop=1;jettySize=auto;html=1;exitX=1;exitY=0.5;exitDx=0;exitDy=0;entryX=0;entryY=0.5;entryDx=0;entryDy=0;fontSize=12;startSize=8;endSize=8;" edge="1" parent="1" source="fuaNH1cyIJZBM1hytxez-4" target="fuaNH1cyIJZBM1hytxez-18">
          <mxGeometry relative="1" as="geometry" />
        </mxCell>
        <mxCell id="fuaNH1cyIJZBM1hytxez-4" value="&lt;div&gt;Przeglądanie&lt;/div&gt;&lt;div&gt;nawyków&lt;/div&gt;" style="ellipse;whiteSpace=wrap;html=1;" vertex="1" parent="1">
          <mxGeometry x="200" y="240" width="120" height="80" as="geometry" />
        </mxCell>
        <mxCell id="fuaNH1cyIJZBM1hytxez-16" style="edgeStyle=none;curved=1;rounded=0;orthogonalLoop=1;jettySize=auto;html=1;exitX=0.5;exitY=0.5;exitDx=0;exitDy=0;exitPerimeter=0;entryX=0;entryY=0.5;entryDx=0;entryDy=0;fontSize=12;startSize=8;endSize=8;" edge="1" parent="1" source="fuaNH1cyIJZBM1hytxez-13" target="fuaNH1cyIJZBM1hytxez-14">
          <mxGeometry relative="1" as="geometry" />
        </mxCell>
        <mxCell id="fuaNH1cyIJZBM1hytxez-17" style="edgeStyle=none;curved=1;rounded=0;orthogonalLoop=1;jettySize=auto;html=1;exitX=0.5;exitY=0.5;exitDx=0;exitDy=0;exitPerimeter=0;entryX=0;entryY=0.5;entryDx=0;entryDy=0;fontSize=12;startSize=8;endSize=8;" edge="1" parent="1" source="fuaNH1cyIJZBM1hytxez-13" target="fuaNH1cyIJZBM1hytxez-15">
          <mxGeometry relative="1" as="geometry" />
        </mxCell>
        <mxCell id="fuaNH1cyIJZBM1hytxez-13" value="&lt;div&gt;Niezalogowany&lt;/div&gt;&lt;div&gt;użytkownik&lt;/div&gt;" style="shape=umlActor;verticalLabelPosition=bottom;verticalAlign=top;html=1;outlineConnect=0;" vertex="1" parent="1">
          <mxGeometry x="80" y="60" width="30" height="60" as="geometry" />
        </mxCell>
        <mxCell id="fuaNH1cyIJZBM1hytxez-14" value="&lt;div&gt;Zaloguj się&lt;/div&gt;" style="ellipse;whiteSpace=wrap;html=1;" vertex="1" parent="1">
          <mxGeometry x="200" y="5" width="120" height="80" as="geometry" />
        </mxCell>
        <mxCell id="fuaNH1cyIJZBM1hytxez-15" value="Zarejestruj się" style="ellipse;whiteSpace=wrap;html=1;" vertex="1" parent="1">
          <mxGeometry x="200" y="95" width="120" height="80" as="geometry" />
        </mxCell>
        <mxCell id="fuaNH1cyIJZBM1hytxez-18" value="Przeglądanie postępów" style="ellipse;whiteSpace=wrap;html=1;" vertex="1" parent="1">
          <mxGeometry x="370" y="240" width="120" height="80" as="geometry" />
        </mxCell>
        <mxCell id="fuaNH1cyIJZBM1hytxez-20" value="Analizowanie wykresów" style="ellipse;whiteSpace=wrap;html=1;" vertex="1" parent="1">
          <mxGeometry x="580" y="150" width="120" height="80" as="geometry" />
        </mxCell>
        <mxCell id="fuaNH1cyIJZBM1hytxez-21" value="&lt;div&gt;Analizowanie osi czasu&lt;/div&gt;" style="ellipse;whiteSpace=wrap;html=1;" vertex="1" parent="1">
          <mxGeometry x="580" y="240" width="120" height="80" as="geometry" />
        </mxCell>
        <mxCell id="fuaNH1cyIJZBM1hytxez-22" value="&lt;div&gt;Przeglądanie&lt;/div&gt;&lt;div&gt;streak&lt;/div&gt;" style="ellipse;whiteSpace=wrap;html=1;" vertex="1" parent="1">
          <mxGeometry x="580" y="330" width="120" height="80" as="geometry" />
        </mxCell>
        <mxCell id="fuaNH1cyIJZBM1hytxez-23" value="&lt;div&gt;Zarządzanie nawykami&lt;/div&gt;" style="ellipse;whiteSpace=wrap;html=1;" vertex="1" parent="1">
          <mxGeometry x="200" y="330" width="120" height="80" as="geometry" />
        </mxCell>
        <mxCell id="fuaNH1cyIJZBM1hytxez-28" value="&amp;lt;&amp;lt;extend&amp;gt;&amp;gt;" style="text;html=1;whiteSpace=wrap;strokeColor=none;fillColor=none;align=center;verticalAlign=middle;rounded=0;" vertex="1" parent="1">
          <mxGeometry x="320" y="240" width="60" height="30" as="geometry" />
        </mxCell>
        <mxCell id="fuaNH1cyIJZBM1hytxez-31" value="" style="endArrow=none;dashed=1;html=1;dashPattern=1 3;strokeWidth=2;rounded=0;fontSize=12;startSize=8;endSize=8;curved=1;exitX=1;exitY=0.5;exitDx=0;exitDy=0;" edge="1" parent="1" source="fuaNH1cyIJZBM1hytxez-18">
          <mxGeometry width="50" height="50" relative="1" as="geometry">
            <mxPoint x="360" y="300" as="sourcePoint" />
            <mxPoint x="550" y="280" as="targetPoint" />
          </mxGeometry>
        </mxCell>
        <mxCell id="fuaNH1cyIJZBM1hytxez-32" value="" style="endArrow=classic;html=1;rounded=0;fontSize=12;startSize=8;endSize=8;curved=1;entryX=0;entryY=0.5;entryDx=0;entryDy=0;" edge="1" parent="1" target="fuaNH1cyIJZBM1hytxez-20">
          <mxGeometry width="50" height="50" relative="1" as="geometry">
            <mxPoint x="550" y="280" as="sourcePoint" />
            <mxPoint x="410" y="250" as="targetPoint" />
          </mxGeometry>
        </mxCell>
        <mxCell id="fuaNH1cyIJZBM1hytxez-33" value="" style="endArrow=classic;html=1;rounded=0;fontSize=12;startSize=8;endSize=8;curved=1;entryX=0;entryY=0.5;entryDx=0;entryDy=0;" edge="1" parent="1" target="fuaNH1cyIJZBM1hytxez-21">
          <mxGeometry width="50" height="50" relative="1" as="geometry">
            <mxPoint x="550" y="280" as="sourcePoint" />
            <mxPoint x="410" y="250" as="targetPoint" />
          </mxGeometry>
        </mxCell>
        <mxCell id="fuaNH1cyIJZBM1hytxez-34" value="" style="endArrow=classic;html=1;rounded=0;fontSize=12;startSize=8;endSize=8;curved=1;entryX=0;entryY=0.5;entryDx=0;entryDy=0;" edge="1" parent="1" target="fuaNH1cyIJZBM1hytxez-22">
          <mxGeometry width="50" height="50" relative="1" as="geometry">
            <mxPoint x="550" y="280" as="sourcePoint" />
            <mxPoint x="410" y="250" as="targetPoint" />
          </mxGeometry>
        </mxCell>
        <mxCell id="fuaNH1cyIJZBM1hytxez-35" value="&amp;lt;&amp;lt;extend&amp;gt;&amp;gt;" style="text;html=1;whiteSpace=wrap;strokeColor=none;fillColor=none;align=center;verticalAlign=middle;rounded=0;" vertex="1" parent="1">
          <mxGeometry x="490" y="240" width="60" height="30" as="geometry" />
        </mxCell>
        <mxCell id="fuaNH1cyIJZBM1hytxez-36" value="Otrzymaj powiadomienie" style="ellipse;whiteSpace=wrap;html=1;" vertex="1" parent="1">
          <mxGeometry x="-120" y="200" width="120" height="80" as="geometry" />
        </mxCell>
        <mxCell id="fuaNH1cyIJZBM1hytxez-41" style="edgeStyle=none;curved=1;rounded=0;orthogonalLoop=1;jettySize=auto;html=1;exitX=0;exitY=0.5;exitDx=0;exitDy=0;entryX=0;entryY=0.5;entryDx=0;entryDy=0;fontSize=12;startSize=8;endSize=8;" edge="1" parent="1" source="fuaNH1cyIJZBM1hytxez-38" target="fuaNH1cyIJZBM1hytxez-36">
          <mxGeometry relative="1" as="geometry">
            <Array as="points">
              <mxPoint x="-240" y="290" />
            </Array>
          </mxGeometry>
        </mxCell>
        <mxCell id="fuaNH1cyIJZBM1hytxez-38" value="Pinguj znajomego" style="ellipse;whiteSpace=wrap;html=1;" vertex="1" parent="1">
          <mxGeometry x="-120" y="290" width="120" height="80" as="geometry" />
        </mxCell>
        <mxCell id="fuaNH1cyIJZBM1hytxez-42" value="&amp;lt;&amp;lt;include&amp;gt;&amp;gt;" style="text;html=1;whiteSpace=wrap;strokeColor=none;fillColor=none;align=center;verticalAlign=middle;rounded=0;" vertex="1" parent="1">
          <mxGeometry x="-170" y="270" width="60" height="30" as="geometry" />
        </mxCell>
        <mxCell id="fuaNH1cyIJZBM1hytxez-45" style="edgeStyle=none;curved=1;rounded=0;orthogonalLoop=1;jettySize=auto;html=1;exitX=0;exitY=0.5;exitDx=0;exitDy=0;entryX=0;entryY=0.5;entryDx=0;entryDy=0;fontSize=12;startSize=8;endSize=8;" edge="1" parent="1" source="fuaNH1cyIJZBM1hytxez-43" target="fuaNH1cyIJZBM1hytxez-36">
          <mxGeometry relative="1" as="geometry">
            <Array as="points">
              <mxPoint x="-270" y="300" />
            </Array>
          </mxGeometry>
        </mxCell>
        <mxCell id="fuaNH1cyIJZBM1hytxez-43" value="Ustaw przypomnienia" style="ellipse;whiteSpace=wrap;html=1;" vertex="1" parent="1">
          <mxGeometry x="-120" y="380" width="120" height="80" as="geometry" />
        </mxCell>
        <mxCell id="fuaNH1cyIJZBM1hytxez-46" value="&amp;lt;&amp;lt;include&amp;gt;&amp;gt;" style="text;html=1;whiteSpace=wrap;strokeColor=none;fillColor=none;align=center;verticalAlign=middle;rounded=0;" vertex="1" parent="1">
          <mxGeometry x="-170" y="340" width="60" height="30" as="geometry" />
        </mxCell>
        <mxCell id="fuaNH1cyIJZBM1hytxez-47" value="System" style="shape=umlActor;verticalLabelPosition=bottom;verticalAlign=top;html=1;outlineConnect=0;" vertex="1" parent="1">
          <mxGeometry x="80" y="540" width="30" height="60" as="geometry" />
        </mxCell>
        <mxCell id="fuaNH1cyIJZBM1hytxez-59" style="edgeStyle=none;curved=1;rounded=0;orthogonalLoop=1;jettySize=auto;html=1;exitX=1;exitY=0.5;exitDx=0;exitDy=0;entryX=0;entryY=0.5;entryDx=0;entryDy=0;fontSize=12;startSize=8;endSize=8;" edge="1" parent="1" source="fuaNH1cyIJZBM1hytxez-51" target="fuaNH1cyIJZBM1hytxez-53">
          <mxGeometry relative="1" as="geometry" />
        </mxCell>
        <mxCell id="fuaNH1cyIJZBM1hytxez-60" style="edgeStyle=none;curved=1;rounded=0;orthogonalLoop=1;jettySize=auto;html=1;exitX=1;exitY=0.5;exitDx=0;exitDy=0;entryX=0;entryY=0.5;entryDx=0;entryDy=0;fontSize=12;startSize=8;endSize=8;" edge="1" parent="1" source="fuaNH1cyIJZBM1hytxez-51" target="fuaNH1cyIJZBM1hytxez-54">
          <mxGeometry relative="1" as="geometry" />
        </mxCell>
        <mxCell id="fuaNH1cyIJZBM1hytxez-51" value="&lt;div&gt;Zarządzaj&lt;/div&gt;&lt;div&gt;aplikacją&lt;/div&gt;" style="ellipse;whiteSpace=wrap;html=1;" vertex="1" parent="1">
          <mxGeometry x="200" y="420" width="120" height="80" as="geometry" />
        </mxCell>
        <mxCell id="fuaNH1cyIJZBM1hytxez-53" value="Zarządzaj powiadomieniami" style="ellipse;whiteSpace=wrap;html=1;" vertex="1" parent="1">
          <mxGeometry x="365" y="380" width="120" height="80" as="geometry" />
        </mxCell>
        <mxCell id="fuaNH1cyIJZBM1hytxez-54" value="&lt;div&gt;Personalizuj&lt;/div&gt;&lt;div&gt;motyw aplikacji&lt;/div&gt;" style="ellipse;whiteSpace=wrap;html=1;" vertex="1" parent="1">
          <mxGeometry x="365" y="460" width="120" height="80" as="geometry" />
        </mxCell>
      </root>
    </mxGraphModel>
  </diagram>
</mxfile>
